<svg xmlns="http://www.w3.org/2000/svg" xmlns:xlink="http://www.w3.org/1999/xlink" width="148.924" height="40.11" viewBox="0 0 148.924 40.11">
  <defs>
    <clipPath id="clip-path">
      <rect id="Retângulo_718" data-name="Retângulo 718" width="148.924" height="40.11" fill="#666"/>
    </clipPath>
  </defs>
  <g id="Logo_Hiper" data-name="Logo Hiper" transform="translate(-744 -573)">
    <g id="Grupo_162139" data-name="Grupo 162139" transform="translate(744 573)">
      <rect id="Retângulo_716" data-name="Retângulo 716" width="6.525" height="11.845" transform="translate(11.567 12.369)" fill="#654d98"/>
      <rect id="Retângulo_717" data-name="Retângulo 717" width="6.523" height="11.845" transform="translate(24.28 12.369)" fill="#654d98"/>
      <g id="Grupo_162137" data-name="Grupo 162137" clip-path="url(#clip-path)">
        <path id="Caminho_591" data-name="Caminho 591" d="M576.137,652.2h-4.7c0-1.1-.224-4.68-3.1-4.68H554.351c-2.871,0-3.1,3.582-3.1,4.68h-4.695c0-4.667,2.408-9.377,7.792-9.377h13.991c5.385,0,7.8,4.709,7.8,9.377" transform="translate(-540.161 -642.823)" fill="#9d7bb4"/>
        <path id="Caminho_592" data-name="Caminho 592" d="M564.367,678.7c0,2.108-.2,5.977-.423,8.761a62.443,62.443,0,0,1-1.315,9.2c-1.565.784-7.028,1.562-13.443,1.562s-11.879-.778-13.443-1.562a62.3,62.3,0,0,1-1.316-9.2c-.22-2.784-.422-6.653-.422-8.761H528c0,2.255.159,5.735.389,8.666a68.844,68.844,0,0,0,1.732,11.494c.909,3.183,5.043,4.176,8.966,4.729a80.553,80.553,0,0,0,20.2,0c3.924-.553,8.059-1.546,8.966-4.729a68.636,68.636,0,0,0,1.733-11.494c.231-2.931.388-6.411.388-8.666Z" transform="translate(-527.999 -666.336)" fill="#664c99"/>
        <path id="Caminho_593" data-name="Caminho 593" d="M704.745,673.126V684.4a.764.764,0,0,1-.765.762h-3.958a.763.763,0,0,1-.764-.762V673.126c0-2.28-.854-3.527-3.487-3.527a7.051,7.051,0,0,0-4.559,1.888V684.4a.763.763,0,0,1-.763.762h-3.959a.764.764,0,0,1-.763-.762V657.186a.763.763,0,0,1,.763-.762h3.959a.763.763,0,0,1,.763.762v9.672a8.673,8.673,0,0,1,5.734-2.171c5.127,0,7.8,2.42,7.8,8.439" transform="translate(-631.353 -651.736)" fill="#58585c"/>
        <path id="Caminho_594" data-name="Caminho 594" d="M808.373,690.589c0,7.123-3.847,10.613-9.117,10.613a8.887,8.887,0,0,1-5.483-2.03v7.347a.764.764,0,0,1-.764.762h-3.96a.764.764,0,0,1-.761-.762V681.308a.762.762,0,0,1,.761-.762h3.96a.762.762,0,0,1,.764.762v.734a8.724,8.724,0,0,1,5.483-2.066c5.271,0,9.117,3.527,9.117,10.613m-5.7,0c0-3.7-1.531-5.7-4.557-5.7a7.409,7.409,0,0,0-4.345,1.6v8.192a7.455,7.455,0,0,0,4.345,1.639c3.026,0,4.557-1.995,4.557-5.735" transform="translate(-698.559 -667.169)" fill="#58585c"/>
        <path id="Caminho_595" data-name="Caminho 595" d="M868.729,696.607a11.348,11.348,0,0,0,4.831-1.141.763.763,0,0,1,1.034.446l.975,2.851a.767.767,0,0,1-.384.935,15.007,15.007,0,0,1-7.168,1.5c-7.016,0-10.754-4.345-10.754-10.648,0-6.908,4.345-10.577,9.688-10.577,5.59,0,9.187,3.312,9.187,9.936v1.41a.763.763,0,0,1-.764.763H863.1c.359,2.563,1.818,4.523,5.627,4.523m-5.519-8.689h7.62c-.263-2.452-1.432-3.547-3.659-3.547-2,0-3.432.944-3.961,3.547" transform="translate(-743.756 -667.168)" fill="#58585c"/>
        <path id="Caminho_596" data-name="Caminho 596" d="M937.393,681.19v3.379a.769.769,0,0,1-.746.766,9.854,9.854,0,0,0-1.789.188,10.62,10.62,0,0,0-3.875,1.872V700.13a.763.763,0,0,1-.763.762h-3.96a.761.761,0,0,1-.76-.762V681.6a.76.76,0,0,1,.76-.762h3.96a.763.763,0,0,1,.763.762v1.161a8.79,8.79,0,0,1,4.76-2.3c.13-.014.509-.025.871-.032a.76.76,0,0,1,.78.762" transform="translate(-788.468 -667.465)" fill="#58585c"/>
        <path id="Caminho_597" data-name="Caminho 597" d="M757.038,681.722H761a.761.761,0,0,1,.76.763v18.525a.761.761,0,0,1-.76.762h-3.96a.764.764,0,0,1-.764-.762V682.485a.765.765,0,0,1,.764-.763" transform="translate(-677.581 -668.313)" fill="#58585c"/>
        <path id="Caminho_598" data-name="Caminho 598" d="M761.586,660.058a4.007,4.007,0,0,0-2.511-.86h-.059a4.009,4.009,0,0,0-2.512.86.516.516,0,0,0-.188.375v2.83a.515.515,0,0,0,.188.376,4.009,4.009,0,0,0,2.512.86h.059a4.007,4.007,0,0,0,2.511-.86.519.519,0,0,0,.189-.376v-2.83a.521.521,0,0,0-.189-.375" transform="translate(-677.608 -653.553)" fill="#58585c"/>
      </g>
    </g>
  </g>
</svg>
